<svg width="20" height="24" viewBox="0 0 20 24" fill="none" xmlns="http://www.w3.org/2000/svg">
<path d="M1.5 7.5V22.5C1.5 23.325 2.175 24 3 24H16.5C17.325 24 18 23.325 18 22.5V7.5H1.5ZM6 21H4.5V10.5H6V21ZM9 21H7.5V10.5H9V21ZM12 21H10.5V10.5H12V21ZM15 21H13.5V10.5H15V21ZM18.375 3H13.5V1.125C13.4988 0.826996 13.3799 0.541536 13.1692 0.330814C12.9585 0.120092 12.673 0.00118492 12.375 0L7.125 0C6.827 0.00118492 6.54154 0.120092 6.33081 0.330814C6.12009 0.541536 6.00118 0.826996 6 1.125V3H1.125C0.826631 3 0.540483 3.11853 0.329505 3.3295C0.118526 3.54048 0 3.82663 0 4.125V6H19.5V4.125C19.5 3.82663 19.3815 3.54048 19.1705 3.3295C18.9595 3.11853 18.6734 3 18.375 3ZM12 3H7.5V1.5195H12V3Z" fill="#2C3F51"/>
</svg>
